<svg xmlns="http://www.w3.org/2000/svg" baseProfile="tiny-ps" width="483" height="50"
  xmlns:v="https://vecta.io/nano">
  <path fill-rule="evenodd" d="M165 1.08c.28-.04 1.96.83 3.75 1.92 1.79 1.1 3.25 2.79 3.24 3.75 0 .96-1.35 2.54-3 3.5-1.64.96-5.13 4.91-12.49 15.79l3 3.11c1.65 1.71 4.8 4.41 7 6.01 2.2 1.59 5.01 2.88 6.25 2.87 1.24-.02 2.47.64 2.75 1.47s.16 2.68-.25 4.13-1.54 3.02-2.5 3.5-2.43.87-3.25.87-4.76-2.5-8.75-5.56-7.92-5.42-8.73-5.25c-.82.17-1.63 1.21-1.79 2.31-.17 1.1-.48 2.9-.69 4s-1.65 2.59-3.21 3.31-4.13 1.17-5.73 1c-1.59-.17-3.39-1.08-4-2.02-.89-1.38-.57-2.26 4.31-7.29L140.3 24c-.39-9.37-1.09-15.3-1.95-16.75-.74-1.24-1.1-3.04-.8-4 .44-1.42 1.35-1.66 4.82-1.25 2.34.27 5.04 1.17 5.99 2 1.2 1.04 1.72 2.95 1.68 6.25-.02 2.61.41 4.97.96 5.25s3.27-2.62 6.04-6.43 5.59-7.15 6.25-7.42c.67-.27 1.43-.53 1.71-.57zM27.75 2.12c2.89-.07 6.71.47 8.5 1.19s4.04 2.41 5.01 3.75 2.02 3.79 2.33 5.44c.32 1.65.09 4.91-.51 7.25-.84 3.31-2 4.86-5.25 7-3.72 2.45-5 2.73-11.75 2.57-4.67-.11-8.08.27-8.87 1-.72.65-1.28 2.42-1.25 3.93.02 1.51.83 3.48 1.79 4.38.96.89 2.43 1.99 3.25 2.44 1.33.73 1.33 1.14-.03 3.63-1.39 2.54-2.19 2.86-8.5 3.4-5.47.47-7.49.26-9.37-1-1.32-.88-2.58-2.05-2.81-2.6-.22-.55.75-2.46 2.15-4.25C4.85 37.2 5 36.32 4.98 25.75c-.02-10.04-.24-11.46-2.09-13.25C1.48 11.14.99 9.7 1.34 8c.3-1.47 1.47-2.8 2.84-3.24 1.27-.4 4.57-.79 7.32-.86 2.75-.08 6.35-.48 8-.9s5.36-.82 8.25-.88zm-11 10.13c.14.41.25 2.66.24 5l-.01 4.25c12.68-1.15 14.84-1.79 15.79-3.16.69-1.01 1.26-2.63 1.25-3.59S33.1 12.1 32 11s-3.01-1.96-4.25-1.92-4.27.61-6.75 1.25-4.39 1.51-4.25 1.92zm51-10.19c2.34-.03 5.94.64 8 1.5 2.06.85 4.81 2.54 6.1 3.75 1.29 1.2 3.29 3.99 4.45 6.19 1.65 3.13 2.12 5.85 2.15 12.5.04 7.43-.28 9.06-2.59 13-1.65 2.81-4.28 5.42-7 6.95-2.98 1.68-5.97 2.47-9.44 2.5-3.94.04-6.15-.62-9.93-2.95-3.46-2.13-5.61-4.44-7.43-7.97-2.17-4.22-2.55-6.27-2.52-13.5.02-5.92.53-9.45 1.66-11.53.89-1.65 2.9-4.21 4.46-5.69S59.63 3.67 61 3.12c1.38-.55 4.41-1.02 6.75-1.06zm-6.34 21.09c-.51 5.77-.31 8.05.97 10.6.89 1.79 2.75 3.92 4.12 4.75 1.87 1.12 3.19 1.25 5.25.52 1.51-.54 3.35-2.23 4.08-3.75.74-1.52 1.6-4.79 1.92-7.27.39-2.98.02-6.1-1.08-9.25-.94-2.67-2.88-5.64-4.42-6.78-1.51-1.12-3.08-2.02-3.48-2-.41.01-2.08 1.33-3.72 2.93-2.59 2.52-3.06 3.84-3.64 10.25zm55.34-21.11c3.44-.02 7.38.41 8.75.96 1.38.55 2.52 1.79 2.54 2.75.03.96-.72 2.3-1.65 2.98-1.2.86-3.58 1.01-8 .5-6.09-.71-6.41-.63-9.39 2.27-1.69 1.65-3.55 4.8-4.13 7-.57 2.2-.73 5.57-.35 7.5.37 1.93 1.76 5.64 3.08 8.25s3.19 4.98 4.15 5.27 5.25.4 9.54.25c6.05-.21 7.99.06 8.73 1.23.52.83.96 2.06.96 2.75.01.69-.77 1.64-1.73 2.11s-4.45 1.37-7.75 2c-3.66.7-7.17.81-9 .29a38.57 38.57 0 0 1-6-2.41c-1.65-.85-3.96-2.61-5.14-3.89-1.17-1.29-3.09-4.26-4.25-6.6s-2.38-6.16-2.71-8.5c-.34-2.34-.11-6.16.5-8.5.66-2.55 2.8-6.11 5.35-8.9 2.34-2.55 5.6-5.23 7.25-5.96 1.65-.72 5.81-1.33 9.25-1.35zm78.5-.02c6.46-.01 12.88.43 14.25.98 1.38.55 3.18 2.35 4 4s1.28 3.45 1 4-1.96.99-3.75.97-4.15-.7-5.25-1.52-3.69-1.48-5.75-1.47c-2.74.02-4.02.56-4.75 2.02-.55 1.1-.89 3.69-.75 5.75.25 3.71.3 3.76 5.25 4.33 2.75.32 5.56.88 6.25 1.25S207 23.9 207 25c0 1.49-.83 2.12-3.25 2.49a142.71 142.71 0 0 1-6.25.75c-2.83.25-3.01.52-3.25 5.01-.17 3.17.25 5.25 1.25 6.25.82.83 2.51 1.51 3.75 1.51 1.24.01 4.5-.73 7.25-1.64 4.98-1.64 5.01-1.64 6.79.74.99 1.31 1.78 2.95 1.75 3.64-.02.69-.75 1.93-1.61 2.75-1.21 1.16-4.25 1.5-13.25 1.51-6.42.01-13.15-.33-14.95-.75-1.79-.42-3.49-1.43-3.76-2.26s.18-2.51 1.02-3.75c1.15-1.72 1.51-5.28 1.51-15 .01-9.68-.41-13.91-1.75-17.55-1.54-4.23-1.57-4.91-.25-5.74.82-.51 6.79-.94 13.25-.94zm45.75.36c6.96.14 10.24.66 12.25 1.91 1.51.94 2.75 2.38 2.75 3.21 0 .82-.56 1.83-1.25 2.23s-3.5.97-11.25 1.77l-.24 13c-.21 11.47 0 13.38 1.75 16.25 1.51 2.46 1.75 3.73.99 5.25-.82 1.65-2.01 2-6.75 2.02-3.4.01-6.57-.57-7.75-1.41-1.95-1.4-1.96-1.54-.25-6.27 1.32-3.63 1.76-7.91 1.75-29.34h-6.5c-3.57 0-6.72-.45-7-1s-.3-1.79-.05-2.75c.24-.96 1.7-2.29 3.25-2.96 1.54-.66 4.15-1.41 5.8-1.66s7.28-.36 12.5-.25zm46-.26c3.44-.07 6.81.54 9 1.63 1.96.98 4.29 3.29 5.3 5.25 1.28 2.48 1.65 4.74 1.25 7.75-.3 2.34-1.11 5.18-1.8 6.31s-2.82 3.01-4.75 4.18c-2.81 1.71-4.98 2.11-11 2.02-4.49-.07-8.02.36-8.79 1.07-.72.64-1.28 2.41-1.25 3.92.02 1.54 1.03 3.64 2.29 4.77 1.24 1.11 2.59 2.01 3 2s.77.54.79 1.23c.03.69-.76 2.24-1.75 3.46-1.5 1.85-2.97 2.26-9.12 2.5-6.4.25-7.51.03-8.72-1.71-1.05-1.53-1.12-2.47-.27-4 .61-1.1 1.72-2.34 2.47-2.75 1.03-.57 1.35-3.8 1.34-13.5-.02-12.55-.06-12.78-2.62-14.75-1.83-1.4-2.44-2.6-2.03-4 .31-1.1 1.6-2.33 2.87-2.74 1.26-.4 4.54-.79 7.29-.86 2.75-.08 6.35-.48 8-.9s5.48-.82 8.5-.88zm-11.25 10.13c.14.41.25 2.55.25 4.75v4c12.83-.45 14.42-.87 15.59-2.5.8-1.1 1.44-2.79 1.43-3.75S292.1 12.1 291 11s-3.01-1.96-4.25-1.92-4.27.61-6.75 1.25-4.39 1.51-4.25 1.92zM376 2.04c3.02 0 7.23.55 9.34 1.23 2.12.67 4.82 2.23 6 3.45 1.93 1.98 2 2.39.66 3.8-.82.86-2.06 1.55-2.75 1.52-.69-.02-2.71-.76-4.5-1.65-1.79-.88-5.05-1.59-7.25-1.57-2.49.02-4.69.72-5.83 1.86-1.11 1.09-1.62 2.62-1.3 3.82.36 1.35 3.68 3.47 10.17 6.5 5.37 2.51 10.25 5.5 11.04 6.75.78 1.24 1.7 3.49 2.03 5 .4 1.78-.13 4.43-1.5 7.5-1.42 3.2-3.17 5.29-5.36 6.42-1.9.97-5.75 1.7-9.25 1.74-3.41.05-8.05-.67-10.75-1.67-2.61-.95-5.2-2.64-5.75-3.74-.78-1.56-.56-2.44 1-4 1.36-1.36 2.72-1.8 4.25-1.37 1.24.34 3.49 1.24 5 2 1.51.75 4.1 1.37 5.75 1.37 1.67 0 3.89-.89 5-2 1.1-1.1 2.01-2.79 2.02-3.75s-.56-2.52-1.25-3.46c-.7-.94-5.09-3.45-9.77-5.59s-9.05-4.52-9.73-5.29c-.68-.78-1.51-3.01-1.84-4.96-.36-2.13-.04-4.92.81-7 .88-2.14 2.71-4.1 4.84-5.18 1.99-1.01 5.71-1.73 8.92-1.73zm44 .34c6.96.14 10.24.66 12.25 1.91 1.51.94 2.75 2.38 2.75 3.21 0 .82-.56 1.83-1.25 2.23s-3.5.97-11.25 1.77l-.24 13c-.21 11.47 0 13.38 1.75 16.25 1.51 2.46 1.75 3.73.99 5.25-.82 1.65-2.01 2-6.75 2.02-3.4.01-6.57-.57-7.75-1.41-1.95-1.4-1.96-1.54-.25-6.27 1.32-3.63 1.76-7.91 1.75-29.34h-6.5c-3.57 0-6.73-.45-7-1s-.3-1.79-.05-2.75c.24-.96 1.7-2.29 3.25-2.96 1.54-.66 4.15-1.41 5.8-1.66s7.27-.36 12.5-.25zM339.34 3.5l.13 5.5c.09 3.94 1.37 8.63 4.5 16.5 2.63 6.63 5.49 12.09 7.2 13.75 1.62 1.57 2.83 3.82 2.83 5.25 0 1.38-.68 2.73-1.5 3s-2.62.5-4 .5c-1.52 0-3.87-1.37-6-3.5-3.42-3.42-3.68-3.5-20-3.59l-2.75 3.54C317.41 47.47 316.4 48 313 48c-3 0-4.25-.5-5-2-.83-1.66-.4-2.55 2.52-5.25 2.92-2.68 4.25-5.43 7.64-15.75 3.4-10.37 3.98-13.22 3.36-16.71-.4-2.32-.37-4.47.07-4.79.45-.31 4.62-.44 17.75 0zm-13.21 28.35c-.5 1.06.45 1.27 4.37 1 4.35-.3 4.96-.61 4.68-2.35-.18-1.1-.97-4.36-1.75-7.25-.79-2.89-1.83-5.25-2.32-5.25s-1.68 2.81-2.63 6.25-2.01 6.86-2.35 7.6zM466.34 3.5l.13 5.5c.09 3.94 1.37 8.63 4.5 16.5 2.63 6.63 5.49 12.09 7.2 13.75 1.62 1.57 2.83 3.82 2.83 5.25 0 1.38-.68 2.73-1.5 3s-2.62.5-4 .5c-1.52 0-3.87-1.37-6-3.5-3.42-3.42-3.68-3.5-20-3.59l-2.75 3.54c-2.45 3.17-3.2 3.52-6.9 3.3-2.74-.17-4.52-.87-5.25-2.06-.92-1.53-.49-2.33 2.71-5 3.35-2.81 4.3-4.7 7.88-15.69 3.37-10.35 3.95-13.23 3.33-16.71-.4-2.32-.37-4.47.07-4.79.45-.31 4.62-.44 17.75 0zm-13.21 28.35c-.5 1.06.45 1.27 4.37 1 4.35-.3 4.96-.61 4.68-2.35-.18-1.1-.97-4.36-1.75-7.25-.79-2.89-1.83-5.25-2.32-5.25s-1.68 2.81-2.63 6.25-2.01 6.86-2.35 7.6z" opacity=".976"/>
</svg>
